<?xml version="1.0" standalone="no"?>
<!DOCTYPE svg PUBLIC "-//W3C//DTD SVG 1.1//EN" "http://www.w3.org/Graphics/SVG/1.1/DTD/svg11.dtd" >
<svg xmlns="http://www.w3.org/2000/svg" xmlns:xlink="http://www.w3.org/1999/xlink" version="1.1" viewBox="-13 0 1291 1265">
  <g transform="matrix(1 0 0 -1 0 1265)">
   <path fill="currentColor"
d="M249 762l-1 9l-42 5q-10 2 -28 2q-14 0 -17 1l-4 3q-5 4 -9 12q-7 13 -22 61v0q-1 -10 -24 -48v0q-9 -15 -19 -37v0q-12 4 -63 -6l-4 -1q-10 -2 -19 -3v0v-7q13 -8 30 -27q22 -24 22 -37q2 -18 -22 -86l-1 -2q-3 -8 -3 -15v-5q25 28 50 47q31 24 48 23q11 -1 23 -11
q7 -6 20 -20t19 -18q13 -10 40 -27v0q-6 49 -36 104v1q-4 7 -8 20l-2 10q4 3 19 15l21 18q9 7 21 14zM1196 578q4 3 19 15l21 18q9 7 22 14l10 5l-1 9l-42 5q-10 1 -27 2q-15 0 -18 1l-4 3q-5 4 -9 12t-13 35l-9 26q-1 -11 -24 -48v-1q-5 -8 -13 -23l-6 -13q-12 4 -63 -6
l-4 -1q-10 -2 -19 -3v-7q13 -9 30 -28q22 -23 22 -36q2 -19 -22 -86l-1 -2q-5 -14 -3 -20v0q25 27 50 47q31 24 48 22q11 -1 23 -11q7 -5 20 -19.5t19 -18.5q13 -9 40 -26v0q-6 49 -36 103v1q-4 8 -8 20zM1110 996q20 -14 40 -27q-7 50 -36 104l-1 1q-4 8 -7 20l-2 10
q4 3 18 16l21 17q10 8 22 14l11 6l-1 8l-42 6q-10 1 -28 1q-15 0 -17 2l-4 2q-5 5 -9 12q-7 13 -22 61v0q-1 -10 -24 -47v-1q-9 -14 -19 -36v0q-12 3 -63 -7l-4 -1q-11 -2 -19 -2v-7q13 -9 30 -28q21 -24 22 -36q1 -19 -23 -87v-2q-3 -8 -3 -15v-5q25 28 49 47q31 24 48 23
q11 -1 24 -11q7 -6 20 -20t19 -18zM803 200q2 3 19 36v0l13 -12q39 19 64 14q12 -3 16 -9v0q11 18 10 118v13l1 19q3 45 2 85q-1 23 -5 82l-4 56q-8 122 -42 236q-19 62 -51 133l-8 18q-11 29 -18 50q-7 26 -12 56q-6 37 12 115l3 12q1 6 -1 8q-4 6 -31 33v0
q-3 -6 -27 -37.5t-32 -43.5q-6 -9 -13.5 -22t-12 -17.5t-10.5 -4.5q-4 0 -14 2l-11 2q-12 1 -62 -1h-8q-39 -2 -49 9q-6 5 -16 41l-5 17q-8 24 -20 36q-7 7 -19 21v0q5 -23 5 -40q0 -10 -3 -23l-2 -10q-1 -12 -6.5 -40.5t-7.5 -37.5q-9 -31 -17 -51q-6 -16 -29 -69l-19 -40
q-32 -74 -51 -147q-16 -62 -25 -135q-10 -84 3 -234l3 -32q6 -68 7 -87q2 -27 10 -65l24 -27q9 15 23 32l12 15l3 -10q4 -11 6.5 -15.5t13.5 -17.5l11 -11q4 10 14 21q5 6 9 10v0l12 -29q-58 -14 -115 -59q-39 -30 -71 -68q-12 -15 -19 -34q-5 -13 -6 -28l-1 -11l13 -17
l7 13q11 16 26 35q21 26 49 52.5t63 47.5q24 14 50 25l21 7q5 -17 16 -28l24 -26q4 10 16 37l10 25q14 -9 106 -3h2q31 2 81 -2l1 -3q1 -4 3 -8q5 -8 16 -21q13 -15 15 -11q6 8 22 39v0q16 -9 35 -21q33 -22 48 -38q18 -21 36 -81l4 -10q3 -6 17 -19l1 -1q3 -2 9 -8l5 -6
q-8 44 -48 102q-26 36 -51 62q-15 15 -50 36v0zM498 191q-7 15 -15 30q-17 31 -21 34l15 9q16 9 27 12l27 -28l-7 -8q-8 -11 -14 -21q-8 -15 -12 -28zM573 222q0 2 1 4q1 5 4 10q5 7 12 14l32 26l44 -44h1q2 0 2 2v0q12 25 26 35l23 -30q4 -4 6 -17v-1q2 0 -12 1.5t-31 2.5
q-23 1 -48 0q-30 0 -60 -3zM771 240q-14 -33 -20 -44l-18 40l9 10q11 12 21 19q14 9 24 9v0q-10 -19 -16 -34zM710 257l-14 16q-15 17 -20 21l-5 -4q-7 -5 -12 -12q-8 -9 -11 -20l-9 6q-9 7 -12 11l-25 30l-38 -32q-5 -5 -12 -16q-4 -7 -5 -8l-11 6q-12 7 -16 12l-13 17
q-15 19 -17 21t-16 -4t-29 -15q-18 -10 -26 -19l-4 23q0 1 -10 13l-12 15l-38 -38l-2 33q-2 36 -3 52l-2 12q-14 128 -6.5 218.5t18.5 140.5q14 70 48 147l32 71q27 62 36 83q14 34 16 50l13 83l10 -16q14 -18 30 -31q22 -17 46 -20t61 -1q23 1 34 1q18 -2 33 -8l14 26
q15 28 21 37v-14q1 -17 4 -34q4 -24 12 -46q3 -9 14 -34q36 -81 55 -140q34 -106 45 -209q18 -168 9 -277l-1 -10v-20q1 -37 0 -57q-2 -35 -9 -46l-11 3q-13 3 -26 2q-19 -1 -35 -10v0q-5 9 -13 17q-16 14 -35 12q-26 -3 -53 -38zM675 795q-3 3 -11 1t-16 -7q-11 -7 -27 -55
l-8 16q-10 17 -16 25q-10 13 -24 22v0l5 -10q31 -52 38 -73l32 -38q3 -3 6 9v2q12 58 37 89l-1 1q-12 16 -15 18zM572 921q-17 17 -30 24q-22 12 -41 0t-19 -32q0 -10 4 -18v0q3 -10 16 -28q11 -14 19 -23t20 -10q15 -1 34 13.5t14 39.5q-4 20 -17 34zM552 873
q-17 -11 -32 -10q-8 1 -12 4l-3 8q-4 10 -3 19q2 13 12.5 22.5t24.5 9.5q9 0 19 -4l9 -4l2 -8q1 -9 -1 -17q-4 -12 -16 -20zM734 942q-11 10 -24 12q-16 2 -29 -9q-8 -7 -12 -18q-4 -8 -6 -16l-1 -7l-4 4q1 -21 14 -38q10 -13 27 -22.5t29.5 -9t24.5 12.5q7 8 11 20
q3 10 3 20t-2 13l-3 4q-17 25 -28 34zM731 877q-14 -14 -33 -11q-10 2 -17 6l-1 5q-1 7 1 14q4 11 13 22q21 25 49 12l3 -7q1 -10 -1 -19q-3 -13 -14 -22z" />
  </g>

</svg>
