<?xml version="1.0" standalone="no"?>
<!DOCTYPE svg PUBLIC "-//W3C//DTD SVG 1.1//EN" "http://www.w3.org/Graphics/SVG/1.1/DTD/svg11.dtd" >
<svg xmlns="http://www.w3.org/2000/svg" xmlns:xlink="http://www.w3.org/1999/xlink" version="1.1" viewBox="-10 0 1285 1265">
  <g transform="matrix(1 0 0 -1 0 1265)">
   <path fill="currentColor"
d="M912 775q-10 -23 -27 -47q-24 -33 -55 -56q-39 -29 -86 -39q1 19 29 33q-45 -22 -79 -60q-28 -32 -54 -82q-15 -29 -41 -94q-22 -52 -34 -78q-21 -44 -42 -77q-52 -82 -107 -140q-66 -71 -151 -125q106 128 173 251q75 139 106 280q-49 5 -103 -6q-45 -9 -100 -31
q-33 -13 -101 -44q-76 -34 -116 -49q-67 -26 -124 -36q37 21 113 63q127 70 187 107q100 61 165 116q79 66 123 134q48 77 57 162q-34 54 -87 89q-44 29 -108 48q-39 12 -118 28q-87 17 -126 30q-66 22 -104 59q41 4 126 16q134 19 199 25q110 8 189 -3q94 -13 159 -56
q13 -9 26 -22l21 -24q16 -21 25 -30q16 -14 32 -21q20 -7 44 -4q57 69 124 102q69 34 164 36l-15 -41q-21 -60 -34 -90q-21 -48 -45 -84q-29 -44 -67 -76q-17 -5 -18.5 -2t5 15t8.5 18q2 12 -5 19q-17 -34 -9 -68q8 -28 35 -60q17 -20 58 -58q30 -29 45 -44q23 -25 37 -47
q48 -77 57 -167q7 -75 -11 -168q-11 -54 -44 -160q-25 -81 -33 -119q-7 31 -10 69q-2 22 -5 67q-4 82 -12 124q-12 70 -45 130q-14 26 -37 52q-14 16 -45 46q-34 32 -49 50q-26 30 -40 61q-17 36 -20 78z" />
  </g>

</svg>
