<?xml version="1.0" standalone="no"?>
<!DOCTYPE svg PUBLIC "-//W3C//DTD SVG 1.1//EN" "http://www.w3.org/Graphics/SVG/1.1/DTD/svg11.dtd" >
<svg xmlns="http://www.w3.org/2000/svg" xmlns:xlink="http://www.w3.org/1999/xlink" version="1.1" viewBox="-10 0 1275 1265">
  <g transform="matrix(1 0 0 -1 0 1265)">
   <path fill="currentColor"
d="M1118 880l-7 13q-4 8 -12 23q-8 18 -14 27q-68 111 -129 203l4 10q9 20 5 41.5t-18 33.5q-11 9 -23.5 7.5t-22.5 -12.5l-4 7q-8 12 -13 18q-12 15 -28.5 14t-28 -17.5t-10.5 -39.5t14 -37q5 -9 17 -27l8 -12q-5 -12 -16 -34l-8 -16q-73 18 -156 14q-58 -3 -87 -6
q-47 -5 -85 -15l-22 -5q-47 -12 -71 -19q-39 -13 -67 -32q-34 -23 -57 -57q-44 -23 -76 -51q-37 -34 -61 -79q-10 -18 -7.5 -40.5t16 -36t29.5 -10t25 20.5q21 38 53 64q26 22 64 39q22 10 69 26l48 18q47 18 103 31q41 10 105 20q60 7 109 10q-5 -6 -14 -19l-4 -7l-17 -23
q-7 -10 -9.5 -24t0.5 -27q4 -22 18 -33.5t31 -5.5l11 4q30 16 69 18q23 1 70 -3l26 -2q30 -2 61 -17q25 -12 56 -35l21 -6q16 -1 28 11.5t14.5 35t-7.5 39.5zM1107 510q-13 13 -29.5 10t-26.5 -21q-20 -37 -52 -63q-26 -22 -63 -39q-23 -10 -69 -26q-33 -12 -49 -18
q-48 -19 -103 -32q-43 -9 -105 -18q-52 -9 -109 -11q7 11 18 23l16 25q7 10 9.5 24t0.5 27q-4 22 -18 33.5t-31 6.5l-12 -4q-30 -16 -69 -19q-24 -1 -72 3l-23 3q-55 3 -117 52l-21 5q-15 2 -28 -11t-15 -35t8 -40l6 -13q5 -7 13 -24t13 -25q56 -94 130 -203l-5 -11
q-8 -19 -4.5 -41t18.5 -34q11 -9 23.5 -7.5t21.5 13.5q10 -15 18 -25q12 -16 28.5 -15t27.5 18t10 39.5t-12 36.5l-27 39l26 50q70 -17 155 -15q55 4 86 7q47 5 86 15l28 7q46 11 69 19q37 13 65 32q32 22 55 55q44 23 75 51q37 34 62 80q10 17 7.5 39.5t-15.5 36.5z" />
  </g>

</svg>
