<?xml version="1.0" standalone="no"?>
<!DOCTYPE svg PUBLIC "-//W3C//DTD SVG 1.1//EN" "http://www.w3.org/Graphics/SVG/1.1/DTD/svg11.dtd" >
<svg xmlns="http://www.w3.org/2000/svg" xmlns:xlink="http://www.w3.org/1999/xlink" version="1.1" viewBox="-10 0 1289 1265">
  <g transform="matrix(1 0 0 -1 0 1265)">
   <path fill="currentColor"
d="M451 503q-23 0 -39.5 -16.5t-16.5 -40t16.5 -40.5t40 -17t40 17t16.5 40.5t-16.5 40t-40.5 16.5zM494 931h260q11 0 19 8t8 19t-8 19t-19 8h-260q-11 0 -19 -8t-8 -19t8 -19t19 -8zM784 899h-296q-40 0 -74 -20t-54 -54.5t-20 -74.5v-163h592v163q0 40 -20 74.5t-54 54.5
t-74 20zM823 503q-23 0 -39.5 -16.5t-16.5 -40t16.5 -40.5t40 -17t40 17t16.5 40.5t-16.5 40t-40.5 16.5zM1252 570h-1q-6 1 -10 5.5t-3 10.5v1q0 6 4.5 10t9.5 4h2q5 -1 9 -5t4 -10q2 25 2 46l-1 26q0 -6 -4 -10t-10 -5v0q-6 0 -10.5 4.5t-4.5 10.5v0q0 6 4 11t10 5h1
q6 0 10 -4t4 -10q-1 37 -7 73q1 -6 -2.5 -11t-9.5 -6h-3q-5 0 -9 3.5t-5 9.5v0q-1 7 2.5 12t9.5 5l2 1q6 0 10 -3.5t5 -8.5q-6 36 -16 71q1 -6 -2 -11t-8 -7h-4q-5 0 -9 3t-6 7v1q-2 6 1 11.5t9 7.5h4q10 0 14 -10q-11 37 -24 69q2 -5 -0.5 -11t-7.5 -8q-3 -1 -6 -1
q-10 0 -14 9v1q-2 5 0 11t8 8q3 2 6 2q10 0 14 -9q-14 32 -33 65q2 -5 0.5 -10.5t-5.5 -8t-8 -2.5q-9 0 -13 7l-1 1q-3 5 -1 11t7 9q3 2 7 2q8 0 12 -6q-18 32 -39 61q3 -5 2 -11t-5.5 -9.5t-8.5 -3.5q-8 0 -12 6l-1 1q-4 5 -3 11t5.5 9.5t9.5 3.5q7 0 12 -6q-21 28 -47 56
q4 -5 3.5 -10.5t-5 -10t-10.5 -4.5t-10 5l-1 1q-4 4 -4 10.5t4.5 10.5t10.5 4t10 -4q-26 27 -53 50q5 -4 5 -10t-4 -11t-10 -5t-10 3l-1 1q-5 4 -5.5 10t4 11t10.5 5t10 -3q-27 23 -59 44q4 -3 5.5 -9t-2.5 -11q-4 -7 -12 -7q-5 0 -8 3h-1q-5 3 -6.5 9.5t2.5 12.5t12 6
q4 0 7 -2q-31 20 -63 35q6 -2 7.5 -8t-0.5 -11q-5 -8 -14 -8q-3 0 -6 1l-1 1q-6 2 -8 8t1 11q4 9 14 9q3 0 6 -2q-34 17 -68 29q6 -3 8.5 -8t0.5 -10t-6 -8t-7.5 -3t-5.5 1h-1q-6 2 -8.5 7.5t-1 11t5.5 8t9 2.5q2 0 4 -1q-35 12 -70 20q6 -1 9 -6t1.5 -10.5t-5.5 -9t-9 -3.5
l-4 1q-6 1 -9.5 6.5t-2 11t5.5 8.5t9 3h2q-36 8 -72 12q6 -1 10 -6t3.5 -10.5t-5 -9.5t-9.5 -4h-3q-6 1 -10 5.5t-3.5 10.5t5 10t10.5 4v0q-30 3 -62 3q6 0 10.5 -4.5t4.5 -10.5t-4.5 -10.5t-10.5 -4.5h-1v0q-6 0 -10.5 4.5t-4.5 10.5t4.5 10.5t10.5 4.5q-34 0 -72 -4
q5 0 9.5 -4t5 -9.5t-3 -10.5t-10.5 -6h-2q-6 0 -10 3.5t-5 9.5t2.5 10.5t9.5 5.5q-36 -4 -71 -12h2q6 0 10 -3.5t5 -9t-2 -10.5t-9 -6l-4 -1q-5 0 -9.5 3t-5.5 8.5t2 10.5t9 7q-36 -9 -71 -21h5q11 0 14 -9q2 -6 -0.5 -11.5t-8.5 -7.5v-1q-3 -1 -6 -1q-10 0 -14 10
q-2 6 0.5 11.5t8.5 7.5q-34 -13 -66 -29q3 1 5 1q9 0 13 -8q3 -6 1 -11.5t-7 -8.5l-1 -1q-3 -1 -7 -1q-9 0 -13 8q-3 5 -1 10.5t7 8.5q-35 -18 -63 -37q3 2 8 2q8 0 12 -5.5t2.5 -11.5t-6.5 -10v0q-4 -3 -9 -3q-8 0 -11.5 6t-2.5 12t6 9q-30 -20 -58 -44q4 3 10 3t10 -5
t3.5 -11t-4.5 -11h-1q-4 -4 -10.5 -4t-10.5 5t-3.5 11t4.5 10q-30 -26 -53 -51q5 4 11 4t10.5 -4t4.5 -10t-4 -10v-1q-5 -5 -11 -5t-10.5 4t-5 10.5t4.5 10.5q-24 -25 -47 -57q5 5 11 5t10 -3t5.5 -9t-2.5 -11l-1 -1q-4 -6 -12 -6q-5 0 -9 3t-5 9t2 11q-21 -30 -39 -62
q4 7 13 7q3 0 7.5 -2t6.5 -8t-1 -12h-1q-4 -8 -13 -8q-3 0 -7.5 2.5t-6.5 8t1 11.5q-17 -32 -31 -66q4 8 13 8q3 0 6 -1q6 -3 8 -8.5t0 -11.5v0q-4 -10 -14 -10q-3 0 -6 1q-5 3 -7.5 8t-0.5 11q-14 -35 -23 -69q4 10 14 10h4q6 -2 9 -7.5t1 -11.5v0q-1 -5 -5 -8t-9 -3h-4
q-6 2 -9 7t-2 11q-9 -35 -14 -72q1 6 5 9t9 3h2q7 -1 10.5 -5.5t2.5 -10.5v-1q-1 -6 -5 -9.5t-10 -3.5h-2q-6 1 -9.5 5.5t-2.5 10.5q-5 -35 -7 -72q1 6 5 9.5t10 3.5v0q7 0 11 -4.5t4 -10.5v-1q0 -6 -4.5 -10t-10.5 -4v0q-6 0 -10 4t-5 10v-14q0 -28 3 -59q-1 6 3 10.5
t10 5.5h1q6 0 10.5 -4t4.5 -9v-1q1 -6 -3 -11t-10 -5h-2q-5 0 -9 3.5t-5 9.5q3 -37 11 -73q-1 6 2.5 11t9.5 6l3 1q5 0 9 -3.5t5 -8.5v-1q2 -6 -1.5 -11t-9.5 -6l-3 -1q-5 0 -9 3t-5 8q7 -35 19 -70q-1 6 1.5 11t8.5 7q2 1 4 1q5 0 9 -2.5t5 -7.5l1 -1q2 -5 -1 -10.5
t-9 -8.5h-4q-10 0 -14 9q12 -35 28 -68q-3 6 -1 11.5t8 8.5q3 1 6 1q10 0 14 -8v-1q3 -5 1 -11t-8 -9q-3 -1 -6 -1q-9 0 -13 8q16 -33 35 -64q-2 5 -1 11t5.5 8.5t8.5 2.5q8 0 13 -7v0q4 -5 2.5 -11t-6 -9t-8.5 -3q-7 0 -12 6q21 -32 43 -59q-4 5 -3.5 11t5 9.5t10.5 3.5
t11 -5v-1q4 -5 3.5 -11t-5 -9.5t-10.5 -3.5t-10 5q22 -27 50 -54q-4 5 -4 10.5t4 10t10 4.5t11 -4v0q5 -5 5 -11t-4.5 -10.5t-10 -4.5t-9.5 4q28 -27 55 -48q-5 4 -5.5 10t3.5 11.5t11 5.5q5 0 9 -3l1 -1q5 -3 5.5 -9.5t-3.5 -11.5t-11 -5q-5 0 -9 2q28 -21 61 -40
q-5 3 -6 9t2 11q4 7 12 7q4 0 8 -2v0q6 -3 7.5 -9t-1.5 -12q-4 -7 -13 -7q-3 0 -6 1q32 -18 64 -32q-5 2 -7 8t0 11q4 9 14 9q3 0 6 -1v0q6 -3 8.5 -8.5t-0.5 -11.5q-4 -9 -13 -9q-3 0 -6 1q33 -14 69 -25q-6 2 -8.5 7.5t-1 10.5t5.5 8t9 3l5 -1q6 -2 8.5 -7t1 -10.5
t-5.5 -8.5t-9 -3h-3q37 -10 71 -16q-6 2 -9.5 6.5t-2.5 10t5.5 9t9.5 3.5h3q6 -1 10 -6t3 -11t-5.5 -9.5t-9.5 -3.5h-1q37 -6 72 -8q-6 1 -10 5.5t-3.5 10.5t4.5 10t10 4h2q6 0 10 -4.5t3.5 -10.5t-4.5 -10.5t-10 -4.5h31q18 0 41 1q-6 0 -10 4t-4.5 10t3.5 11t10 5h2
q6 0 10.5 -4t4.5 -10t-3.5 -10.5t-9.5 -5.5q35 3 71 9h-1q-5 0 -9 3.5t-5.5 9t2 11t9.5 6.5h4q5 0 9 -3.5t5.5 -9t-2 -10t-9.5 -6.5q36 7 71 18l-4 -1q-5 0 -9 3t-5.5 8t1.5 10.5t9 7.5v0q3 1 5 1q5 0 9 -3t5.5 -8t-1 -10.5t-8.5 -7.5q34 11 68 26q-3 -1 -5 -1q-10 0 -14 9
q-2 6 0 11.5t8 8.5v0q3 1 7 1q9 0 13 -8q2 -6 0.5 -11.5t-7.5 -7.5q35 15 65 34q-3 -2 -7 -2q-9 0 -13 7q-3 5 -1.5 11t6.5 9h1q3 3 7 3q9 0 13 -8q3 -5 1.5 -11t-6.5 -9q31 19 60 42q-4 -3 -8 -3q-7 0 -11.5 5t-3.5 11.5t6 10.5h1q4 3 9 3q7 0 11 -5t3.5 -11t-5.5 -10
q30 24 55 49q-4 -4 -10 -4t-10.5 4t-4.5 10.5t5 10.5v0q5 5 11 5t10.5 -4.5t4.5 -10.5t-5 -10q26 25 49 54q-4 -5 -10 -5t-10.5 3.5t-5 10t3.5 10.5v1q5 6 11 6t10.5 -3.5t5 -9.5t-2.5 -11q23 29 42 60q-5 -7 -13 -7q-4 0 -8.5 3t-5.5 9t2 11v1q5 7 13 7q4 0 8.5 -3t6 -8.5
t-1.5 -11.5q18 30 34 65q-4 -8 -13 -8q-3 0 -6 1q-6 3 -8 8.5t1 11.5v1q4 8 14 8q3 0 6 -1q5 -2 7 -7.5t0 -11.5q16 34 27 68q-4 -10 -14 -10q-3 0 -5 1q-6 2 -8.5 7.5t-0.5 11.5v0q2 5 5.5 8t8.5 3q3 0 5 -1q5 -2 8 -7t1 -11q12 35 19 71q-1 -5 -5 -8.5t-10 -3.5l-2 1
q-6 1 -9.5 6t-2.5 11v1q1 5 5 8.5t10 3.5l2 -1q6 -1 9.5 -6t2.5 -10q7 35 10 72q-1 -6 -5 -10t-10 -4zM118 428l37 27q-65 85 -71 158q-4 58 31 106q25 33 67 59q21 12 36 18v0l-8 -4q-11 -6 -21 -13q-14 -10 -26 -22q-15 -15 -25 -31q-11 -20 -16 -41q-5 -25 -1 -51
q5 -30 21 -62q19 -35 51 -72l21 42l28 -128zM987 492q0 -54 -30 -98.5t-79 -64.5v-87q0 -23 -16 -39t-38.5 -16t-38.5 16t-16 39v73h-263v-73q0 -23 -16 -39t-38.5 -16t-39 16t-16.5 39v86q-49 20 -79.5 64.5t-30.5 99.5v355q0 48 23.5 88.5t63.5 64.5t88 24h351
q48 0 88 -24t64 -64.5t24 -88.5v-355h-1zM1029 415q5 1 9 3q12 4 23 9q16 8 29 18q17 12 30 27q14 17 22 38q9 23 9 50q0 30 -11 64q-12 37 -38 79l-28 -39l-7 131l121 -33l-42 -21q27 -49 38 -93q10 -39 7 -74q-3 -31 -16 -57q-12 -23 -31 -42q-17 -16 -38 -29
q-18 -11 -37 -19q-15 -5 -28 -9z" />
  </g>

</svg>
