<?xml version="1.0" standalone="no"?>
<!DOCTYPE svg PUBLIC "-//W3C//DTD SVG 1.1//EN" "http://www.w3.org/Graphics/SVG/1.1/DTD/svg11.dtd" >
<svg xmlns="http://www.w3.org/2000/svg" xmlns:xlink="http://www.w3.org/1999/xlink" version="1.1" viewBox="-10 0 2644 1265">
  <g transform="matrix(1 0 0 -1 0 1265)">
   <path fill="currentColor"
d="M2621 468v0q-1 17 -12 37q-6 11 -22 35q-15 21 -21 31q-21 37 -57 113q-41 87 -67 129l-22 28q-11 13 -29 16l-6 1q-20 4 -37 -5t-21 -26l-4 -13q-14 -39 -32 -119q-9 -41 -14 -61q-31 58 -41 104l-19 60q-4 11 -14.5 19t-23.5 9q-18 1 -32 -8.5t-16 -24.5l-3 -26h1
q-6 -43 -18 -96q-8 -32 -24.5 -95.5t-23.5 -95.5q-15 21 -45 60q-36 48 -52 72q-9 39 -33 70l-16 11q-9 3 -18 2t-16 -6l-3 -3q-8 -6 -11 -15q-25 9 -53 4q-40 0 -81 -22q-47 -27 -79 -54q-37 -33 -57 -70q-10 47 -30 109q-1 103 -7 159q52 8 96 12q25 2 41 17t14 34.5
t-19 32t-40 13.5v0l-6 -1q-55 1 -120 -11q-38 -7 -115 -26q-99 -25 -151 -32q-2 -1 -3 -9l-2 -8q-18 -8 -23.5 -23.5t4.5 -29.5t29 -19t37 3q51 6 122 20l16 -62q5 0 11 -1q9 -3 17.5 -10t13.5 -17q10 -22 2 -51q-4 -16 -15 -33q-7 -12 -17 -23q3 -83 17 -156
q2 -15 14.5 -26t30.5 -14q10 -9 24 -14t29 -3q23 2 37 17t10 34l-2 22q16 -15 39 -27q39 -20 84.5 -18.5t82.5 25.5q40 6 74.5 31t55.5 61l5 11q33 -46 62 -82q6 -7 15.5 -9.5t18.5 -0.5l-2 -10q-3 -13 5 -23.5t23 -13.5t27.5 4t15.5 20q12 52 43 154l21 72q25 -56 58 -104
l10 -13q12 -13 31 -14.5t35 9.5l6 4q10 7 15 18l12 29q11 27 20 62q6 22 16 64l5 24q11 -23 33 -68q33 -69 52 -103q30 -56 60 -98l-1 5q7 -15 23.5 -21.5t34.5 -1t25.5 19.5t1.5 29zM1644 490v0q10 19 23 37q0 -22 9 -42.5t27 -37.5q-20 4 -35.5 14.5t-23.5 28.5zM1799 470
v0q-18 -2 -32.5 3t-22.5 19l-1 1q-8 13 -10 21q-5 12 -1 23q9 32 38.5 55t65.5 26l10 -5l4 -4q6 -8 17 -10v0q10 -22 2 -45q-6 -19 -24 -39q-11 -13 -36 -35zM455 460q-19 5 -24 10t-8 22q-6 42 -20.5 62t-46.5 30q-14 4 -14 11t9 11q23 10 36.5 29.5t13.5 43.5q0 43 -38 67
q-42 27 -106 27q-11 0 -40 -2q-44 -3 -71 -3q-17 0 -24 1q-39 2 -49 2q-22 0 -36.5 -3t-23 -10t-8.5 -17q0 -7 4.5 -11.5t18 -10.5t18 -19t4.5 -49q0 -114 -2 -132q-2 -25 -6.5 -35.5t-17.5 -18.5q-11 -6 -14.5 -10t-3.5 -10q0 -37 110 -37q60 0 84.5 7t24.5 25q0 14 -17 22
q-9 5 -12 7.5t-4 8.5q-5 18 -5 51q0 22 3 28t15 6q19 -1 30 -11t18 -35q10 -38 18 -56.5t19 -30.5q26 -27 84 -27q43 0 69 10q11 5 18 13t7 15t-4 12.5t-9 6.5zM238 628q-12 -11 -38 -11q-10 0 -13 3t-3 12l3 63q1 12 6 17t16 5q41 0 41 -50q0 -26 -12 -39zM751 530v0v0z
M1043 536q-27 24 -77 43q-28 12 -28 24q0 8 6 13t14 5q13 0 31.5 -15.5t26.5 -20t20 -4.5t20 7t8 17.5t-7 25t-18 26.5q-15 16 -28 16q-5 0 -12 -3q-14 -4 -19 -4t-12 1q-33 5 -49 5q-53 0 -84 -32q-22 -22 -22 -53q0 -29 21.5 -51t69.5 -42q23 -10 23 -22q0 -7 -6 -11.5
t-16 -4.5t-18 4t-20 16q-22 20 -29 25t-16 5q-21 0 -21 -24q0 -14 10.5 -35t22.5 -31q8 -6 22 -6l13 1q5 1 9 1l32 -3q32 -4 43 -4q45 0 77 22q36 24 36 60q0 29 -23 49zM611 698q55 0 100 30q25 16 25 28q1 7 -6 13t-17 9q-21 7 -48 7q-22 0 -35.5 -4t-13.5 -11q0 -2 1 -4
q4 -5 4 -8t-2.5 -5.5t-17 -12t-18 -13t-3.5 -10.5q0 -19 31 -19zM1410 477q-10 2 -13 3.5t-6 6.5q-7 12 -7 53l1 38q0 28 -7.5 43.5t-26.5 28.5q-37 23 -89 23q-58 0 -113 -25q-20 -10 -31 -22.5t-11 -24.5t9 -19.5t24 -7.5q29 0 55 33q11 12 18 17t16 5q15 0 21.5 -12.5
t6.5 -40.5q0 -11 -4.5 -14t-21.5 -3q-78 0 -117 -33q-26 -21 -26 -48q0 -17 9.5 -32t25.5 -25q24 -15 62.5 -15t68.5 19q10 7 15.5 7t11.5 -7q19 -19 50 -19q24 0 47 11q18 9 29.5 23t11.5 26q0 10 -9 11zM1235 462q-11 0 -18 8t-7 20.5t9.5 22t22.5 9.5q10 0 13.5 -5
t3.5 -19q0 -36 -24 -36zM734 644q-40 29 -97 29q-36 0 -66 -12q-41 -15 -67 -45q-30 -35 -30 -78q0 -33 17 -62q14 -23 34 -38q43 -32 105.5 -32t109.5 31q27 17 27 36q0 9 -7.5 17.5t-14.5 8.5t-17.5 -7t-28 -11.5t-31.5 -4.5q-25 0 -46 15t-21 32q0 7 10 7h140
q13 0 21 10.5t8 27.5q0 21 -14 43q-12 19 -32 33zM648 579h-30q-11 0 -15 3t-4 11q0 11 9 22t25 11t25.5 -9t9 -23.5t-19.5 -14.5zM1262 673v0v0zM1480 633q6 24 -3 43q-4 8 -10.5 14t-15.5 9q-5 1 -10 1h-3q-11 -1 -21 -7q-12 -8 -16 -23q-5 -18 6 -34q4 -6 14 -13
q5 -3 3.5 -8t-6.5 -12t-10 -11q-9 -9 -10 -11q-1 -5 3 -10.5t11 -6.5q14 -4 34 14q12 12 21 26.5t13 28.5z" />
  </g>

</svg>
